<?xml version="1.0" encoding="UTF-8" standalone="no"?>
<!-- Created with Inkscape (http://www.inkscape.org/) -->

<svg
   width="342.84097mm"
   height="139.79443mm"
   viewBox="0 0 342.84097 139.79443"
   version="1.1"
   id="svg1"
   xml:space="preserve"
   inkscape:version="1.4.2 (f4327f4, 2025-05-13)"
   sodipodi:docname="lacasavarietal-logo.svg"
   xmlns:inkscape="http://www.inkscape.org/namespaces/inkscape"
   xmlns:sodipodi="http://sodipodi.sourceforge.net/DTD/sodipodi-0.dtd"
   xmlns="http://www.w3.org/2000/svg"
   xmlns:svg="http://www.w3.org/2000/svg"><sodipodi:namedview
     id="namedview1"
     pagecolor="#505050"
     bordercolor="#eeeeee"
     borderopacity="1"
     inkscape:showpageshadow="0"
     inkscape:pageopacity="0"
     inkscape:pagecheckerboard="0"
     inkscape:deskcolor="#505050"
     inkscape:document-units="mm"
     inkscape:zoom="0.69753788"
     inkscape:cx="728.27586"
     inkscape:cy="222.92696"
     inkscape:window-width="1920"
     inkscape:window-height="1001"
     inkscape:window-x="-9"
     inkscape:window-y="-9"
     inkscape:window-maximized="1"
     inkscape:current-layer="layer1" /><defs
     id="defs1" /><g
     inkscape:label="Capa 1"
     inkscape:groupmode="layer"
     id="layer1"
     transform="translate(87.565134,-150.34408)"><path
       style="fill:#000000"
       d="m -55.625941,289.81945 c -1.445871,-0.51722 -2.661904,-1.70888 -3.265844,-3.20038 l -0.474888,-1.1728 0.03627,-22.70125 c 0.01995,-12.48569 3.37e-4,-22.70125 -0.04358,-22.70125 -0.04391,0 -2.679607,1.41341 -5.857099,3.14092 -3.177493,1.7275 -8.491889,4.59775 -11.809759,6.37832 -3.31788,1.78057 -6.42441,3.46427 -6.90342,3.74156 -0.68359,0.39572 -0.91585,0.44654 -1.07982,0.23626 -0.63924,-0.81976 -2.62876,-4.65038 -2.53805,-4.88677 0.0589,-0.15347 1.61684,-1.09266 3.4621,-2.08707 6.69624,-3.60862 21.745576,-11.76304 29.813357,-16.15423 4.540251,-2.4712 18.065751,-9.80458 30.056668,-16.2964 11.990918,-6.49182 29.7550436,-16.11297 39.475836,-21.38033 9.720796,-5.26737 21.293666,-11.52876 25.717496,-13.9142 4.42384,-2.38545 12.99634,-7.0302 19.05001,-10.32167 6.05366,-3.29148 12.45652,-6.75724 14.22857,-7.7017 1.77205,-0.94445 3.22461,-1.76623 3.22792,-1.82616 0.003,-0.0599 -1.25606,-0.80101 -2.79858,-1.64683 -1.54252,-0.84583 -2.92667,-1.61391 -3.07589,-1.70685 -0.20286,-0.12635 0.0838,-0.80566 1.136,-2.69234 0.77403,-1.38784 1.42266,-2.54188 1.44139,-2.56454 0.0187,-0.0226 2.17454,1.14343 4.79067,2.59129 2.61612,1.44786 4.82122,2.63321 4.90021,2.63411 0.079,8.9e-4 2.29059,-1.17843 4.91465,-2.62071 l 4.77101,-2.62235 1.38244,2.52821 c 0.76034,1.39051 1.38244,2.56265 1.38244,2.60474 0,0.0421 -1.11919,0.67218 -2.48708,1.40019 -1.3679,0.72801 -2.75468,1.48605 -3.08175,1.68453 l -0.59466,0.36087 2.81716,1.54157 c 4.6968,2.57013 21.487754,11.669 31.815504,17.24055 5.35517,2.88897 12.92754,6.98667 16.8275,9.106 3.89996,2.11933 13.47258,7.30849 21.2725,11.53147 7.79992,4.22298 18.13454,9.82426 22.96584,12.44728 4.83129,2.62303 12.71818,6.89808 17.52643,9.50012 4.80824,2.60205 11.33287,6.14645 14.49916,7.87646 3.1663,1.73 12.04023,6.54967 19.71984,10.71036 16.15736,8.7538 17.68124,9.60109 17.68124,9.83097 0,0.41615 -2.70068,4.98351 -2.91968,4.93773 -0.24931,-0.0521 -16.73706,-8.90986 -22.21655,-11.93544 -1.65939,-0.91626 -3.06433,-1.66592 -3.12209,-1.66592 -0.22,0 -0.10443,43.91446 0.11768,44.71425 0.38405,1.38287 1.82348,1.78793 3.5575,1.0011 0.50748,-0.23027 0.99991,-0.41868 1.09428,-0.41868 0.30889,0 0.86904,2.93786 0.6413,3.36341 -0.11397,0.21295 -0.71108,0.61308 -1.32692,0.88916 -0.88518,0.39684 -1.47434,0.50018 -2.81303,0.4934 -2.88047,-0.0146 -4.81633,-1.24523 -5.75642,-3.6594 -0.35781,-0.91884 -0.38859,-2.50346 -0.48774,-25.10675 l -0.10584,-24.12601 -9.31333,-5.04272 c -5.12233,-2.7735 -13.98058,-7.57566 -19.685,-10.67146 -21.8723,-11.87015 -52.86537,-28.66481 -79.58667,-43.12677 -12.7987,-6.92684 -28.605924,-15.52425 -29.104174,-15.82949 -0.22655,-0.13879 -0.80256,0.0739 -2.01083,0.7425 -2.66208,1.47306 -21.16404,11.4946 -32.91417,17.82786 -5.87904,3.16878 -20.78567,11.2378 -33.125836,17.93117 -12.3401684,6.69336 -26.818168,14.53372 -32.173335,17.42302 -5.355167,2.8893 -13.832417,7.47606 -18.838334,10.1928 -5.005917,2.71674 -11.457579,6.20079 -14.337025,7.74232 l -5.235358,2.80279 -0.0034,23.85361 -0.0034,23.85362 0.476581,0.55406 c 0.678916,0.78928 1.91541,0.91846 3.229133,0.33733 0.559005,-0.24727 1.057566,-0.4084 1.107911,-0.35805 0.05035,0.0503 0.18405,0.83671 0.297122,1.74747 0.194293,1.56498 0.180726,1.67605 -0.24702,2.02242 -1.129978,0.915 -4.358373,1.24473 -6.097162,0.62272 z m 14.016547,-17.26574 c -3.298826,-0.80067 -5.123022,-2.84512 -5.328079,-5.97138 -0.132084,-2.01371 0.341714,-3.44311 1.537703,-4.6391 1.684036,-1.68404 3.67199,-2.36038 11.009765,-3.74574 l 2.54,-0.47955 0.06406,-0.99433 c 0.193016,-2.9959 -1.556841,-4.79613 -4.853364,-4.99309 -2.794184,-0.16695 -4.744761,0.86573 -5.895384,3.12113 -0.240029,0.4705 -0.553544,0.85597 -0.696699,0.85659 -0.525889,0.002 -3.541049,-1.32636 -3.539047,-1.55951 0.0056,-0.65416 1.157947,-2.58965 2.069771,-3.47647 2.01306,-1.95785 4.356727,-2.78823 7.884941,-2.79369 3.401624,-0.005 5.791122,0.8862 7.51516,2.80374 1.794958,1.99643 2.224012,4.2704 2.053636,10.88424 -0.128359,4.98278 0.0063,6.28331 0.724839,7.00188 0.476127,0.47612 0.640231,0.51465 1.674555,0.39308 l 1.146698,-0.13477 v 1.56343 c 0,1.82311 -0.09513,1.94771 -1.7523,2.29531 -2.565547,0.53813 -5.022883,-0.71856 -5.779908,-2.95586 -0.0099,-0.0293 -0.404715,0.31451 -0.877315,0.76409 -2.097107,1.99493 -6.147844,2.87339 -9.499032,2.06 z m 5.784171,-3.83108 c 1.652342,-0.49069 3.046804,-1.52657 3.625556,-2.69325 0.398293,-0.80289 0.500118,-1.35969 0.51268,-2.80343 0.0086,-0.99085 -0.03547,-1.85268 -0.09797,-1.91519 -0.189663,-0.18966 -7.291613,1.32739 -8.261417,1.76473 -1.92525,0.8682 -2.780412,2.6938 -1.98362,4.23462 0.775682,1.5 3.682143,2.16166 6.204774,1.41252 z m 22.899975,3.81162 c -5.525248,-1.1012 -8.879866,-5.76234 -8.866914,-12.32031 0.01211,-6.13275 3.157471,-10.65806 8.357158,-12.02364 1.729916,-0.45432 5.0197106,-0.45404 6.5945206,5.6e-4 2.780538,0.80266 4.963732,2.50221 5.97334702,4.65008 0.734793,1.5632 0.668913,1.6925 -1.23687302,2.42745 -0.927577,0.35771 -1.782037,0.65038 -1.898799,0.65038 -0.116762,0 -0.460444,-0.52455 -0.763738,-1.16566 -0.959809,-2.02887 -2.807782,-3.05568 -5.5125666,-3.06302 -1.493854,-0.004 -1.878732,0.0784 -3.015177,0.64633 -2.249341,1.12401 -3.473158,3.0752 -3.86537,6.16275 -0.441217,3.47334 0.250575,6.44751 1.926121,8.28083 1.491113,1.63151 2.73823,2.14908 5.185202,2.15192 1.4942836,0.002 2.1135456,-0.094 2.8722876,-0.4442 1.29246,-0.59648 2.397466,-1.77506 2.978422,-3.17672 0.321664,-0.77607 0.571284,-1.11428 0.766982,-1.03919 0.159566,0.0612 1.007676,0.31983 1.884689,0.57465 l 1.59457002,0.46333 -0.116729,0.71931 c -0.339769,2.09375 -2.54392402,4.71166 -4.84573702,5.75535 -2.347208,1.06427 -5.1277806,1.32451 -8.0113956,0.7498 z m 21.7152446,0.0164 c -3.403603,-0.85362 -5.142541,-2.79325 -5.350801,-5.96834 -0.17982,-2.74148 0.894214,-4.69359 3.270962,-5.94511 1.755692,-0.9245 4.6007664,-1.63481 9.6459724,-2.40823 2.346315,-0.35969 2.412852,-0.43254 2.120444,-2.32165 -0.392027,-2.53271 -1.648132,-3.84386 -4.015968,-4.19195 -1.237661,-0.18194 -3.240652,0.0636 -4.086287,0.50086 -0.9530084,0.49282 -2.1204784,1.75951 -2.5807934,2.80013 -0.313054,0.70771 -0.49922,0.90273 -0.76681,0.80328 -3.602303,-1.33873 -3.614142,-1.35462 -2.568206,-3.44772 0.773354,-1.54762 1.921221,-2.63224 3.651971,-3.45076 1.822932,-0.86211 3.2412344,-1.09946 6.0548334,-1.01327 2.314271,0.0709 2.550085,0.11996 4.076898,0.84819 1.795295,0.85628 3.095955,2.01879 3.800455,3.3968 0.93604,1.83091 1.02967,2.67789 1.03232,9.3384 l 0.003,6.31337 0.64116,0.64115 c 0.63238,0.63239 1.08525,0.70368 2.32217,0.36557 0.25651,-0.0701 0.32929,0.20023 0.37888,1.40734 0.0513,1.24873 -0.005,1.55395 -0.34117,1.85842 -0.88823,0.80384 -3.79722,0.82643 -5.31553,0.0413 -0.62185,-0.32157 -1.53114,-1.3769 -1.767628,-2.05153 -0.101682,-0.29007 -0.270053,-0.2112 -0.969387,0.45406 -2.07149,1.97056 -6.015731,2.83735 -9.2359954,2.02971 z m 6.6868844,-4.19132 c 2.415754,-1.09055 3.155616,-2.42822 3.155616,-5.70536 v -1.49894 l -0.687916,0.12423 c -2.784516,0.50288 -6.895148,1.47031 -7.631641,1.7961 -1.3185154,0.58325 -2.2637764,1.75642 -2.2637764,2.8096 0,2.1485 1.559888,3.20399 4.5508334,3.07927 1.244631,-0.0519 2.006953,-0.21218 2.876884,-0.6049 z m 20.809066,4.29621 c -2.7006,-0.43224 -5.11761,-1.68035 -6.85896,-3.54185 -1.77226,-1.89456 -1.74,-2.03266 0.83402,-3.57002 0.92141,-0.55032 1.39106,-0.72871 1.45034,-0.55088 0.41925,1.25775 2.76283,3.13325 4.59532,3.6775 1.34493,0.39944 4.48278,0.33306 5.65606,-0.11966 2.63048,-1.01499 3.01283,-3.88932 0.66834,-5.02427 -0.51631,-0.24994 -2.48389,-0.76925 -4.37241,-1.15401 -4.92675,-1.00376 -6.79021,-1.81305 -7.96113,-3.45746 -1.08747,-1.52721 -1.40299,-4.09444 -0.74174,-6.03511 0.72615,-2.13114 3.31203,-4.12858 6.21506,-4.80077 2.5807,-0.59755 6.60375,-0.20703 8.65672,0.84032 1.96517,1.00256 4.42496,3.99158 3.77841,4.59136 -0.14171,0.13145 -0.92439,0.63646 -1.73931,1.12224 -1.32595,0.79041 -1.50391,0.84581 -1.69333,0.52709 -1.25946,-2.11919 -2.68358,-3.1221 -4.95213,-3.48744 -3.20602,-0.51631 -5.86494,0.71327 -6.10263,2.82208 -0.24112,2.1392 0.90486,2.87231 6.30365,4.03259 4.57665,0.98359 5.77059,1.43738 7.00579,2.66273 2.19552,2.17801 2.18762,6.04467 -0.0178,8.72024 -0.71073,0.86223 -2.74557,2.01173 -4.32569,2.44362 -1.33593,0.36514 -4.94036,0.5351 -6.39858,0.3017 z m 20.67544,-0.35135 c -2.05503,-0.55251 -3.35507,-1.52563 -4.21664,-3.15627 -0.48465,-0.91727 -0.55918,-1.31225 -0.55918,-2.96334 0,-1.65865 0.0737,-2.04514 0.56973,-2.98867 1.32935,-2.52856 3.45418,-3.51915 10.17028,-4.74133 1.95099,-0.35504 3.6893,-0.70003 3.86292,-0.76665 0.37841,-0.14521 0.42687,-1.67774 0.0913,-2.88622 -0.29732,-1.07061 -1.36808,-2.2488 -2.49803,-2.74864 -1.10787,-0.49007 -3.29312,-0.5534 -4.68591,-0.13579 -1.16627,0.34968 -2.79611,1.9009 -3.16195,3.00942 -0.16013,0.48518 -0.39146,0.78058 -0.61155,0.78091 -0.69194,0.001 -3.42318,-1.33882 -3.423,-1.6792 3.3e-4,-0.65915 1.23195,-2.88973 2.03578,-3.68699 1.67069,-1.65704 4.26915,-2.53527 7.48905,-2.53118 4.2581,0.005 7.38977,1.70394 8.80967,4.77808 l 0.6095,1.3196 0.1072,6.87916 c 0.059,3.78355 0.18487,7.03714 0.2798,7.23021 0.24787,0.50417 1.21965,0.84959 2.17527,0.7732 l 0.82439,-0.0659 0.0654,1.15286 c 0.0956,1.68449 -0.0526,2.05598 -0.93625,2.34762 -2.4103,0.79547 -5.20455,-0.14354 -6.19977,-2.08342 -0.37719,-0.73522 -0.39315,-0.74259 -0.63385,-0.29283 -0.37804,0.70636 -2.30178,1.90773 -3.80076,2.37356 -1.62492,0.50497 -4.64509,0.5438 -6.3634,0.0818 z m 6.7364,-3.94981 c 1.41106,-0.5251 2.86415,-1.91888 3.17766,-3.04794 0.1245,-0.44835 0.22689,-1.58345 0.22754,-2.52245 l 0.001,-1.70725 -2.38125,0.49835 c -6.51389,1.36323 -7.13106,1.61431 -7.82513,3.18338 -1.41322,3.19482 2.42442,5.2242 6.8,3.59591 z m 41.351803,3.86392 c -2.1197,-0.44832 -3.70895,-1.51731 -4.65454,-3.13084 -0.469123,-0.80049 -0.582943,-1.29159 -0.656653,-2.83323 -0.081,-1.69432 -0.0371,-1.97134 0.480223,-3.02866 1.19775,-2.44811 3.52431,-3.62664 9.21888,-4.66987 1.57163,-0.28791 3.3695,-0.62724 3.99527,-0.75406 l 1.13777,-0.23058 -0.10139,-1.58 c -0.12656,-1.97198 -0.79586,-3.0544 -2.38581,-3.85843 -1.56244,-0.79011 -3.77956,-0.77068 -5.45246,0.0478 -1.21101,0.59249 -2.19825,1.68646 -2.69062,2.98148 -0.114,0.29985 -0.30821,0.54518 -0.43158,0.54518 -0.12337,0 -0.93535,-0.30575 -1.80441,-0.67945 -1.811863,-0.77912 -1.867573,-0.91675 -1.06701,-2.63615 1.37385,-2.95069 4.47409,-4.52702 8.91034,-4.53051 4.85755,-0.004 7.756,1.76619 9.03554,5.51778 0.44384,1.30133 0.46968,1.72927 0.47722,7.90251 l 0.008,6.52668 0.52917,0.42945 c 0.4341,0.35229 0.7288,0.40886 1.64041,0.31486 l 1.11125,-0.11458 v 1.54629 c 0,1.77975 -0.0894,1.90297 -1.63977,2.26084 -2.13009,0.49168 -4.68949,-0.46354 -5.43147,-2.02715 l -0.36406,-0.76721 -1.05509,0.94861 c -1.51862,1.36537 -2.97004,1.86065 -5.69128,1.9421 -1.22237,0.0366 -2.62543,-0.0187 -3.11791,-0.12285 z m 5.99996,-3.91215 c 1.27713,-0.53126 2.35184,-1.35603 2.865,-2.19867 0.38175,-0.62685 0.48578,-1.17789 0.56101,-2.97146 0.0813,-1.93914 0.0526,-2.18665 -0.24073,-2.07409 -0.18319,0.0703 -1.59947,0.37202 -3.14728,0.6705 -1.54782,0.29848 -3.31775,0.6901 -3.93319,0.87026 -3.58292,1.04885 -3.99781,4.83159 -0.64988,5.92531 1.13009,0.36918 3.38937,0.2589 4.54507,-0.22185 z m 51.25454,3.91558 c -4.95274,-0.8912 -8.17483,-3.93913 -9.17913,-8.68298 -0.50696,-2.39467 -0.32041,-6.38556 0.39345,-8.41666 1.54732,-4.40255 4.77941,-6.95735 9.32263,-7.36904 6.85403,-0.6211 11.55832,3.92931 11.57446,11.19587 0.006,2.72147 0.899,2.47316 -8.89377,2.47316 -6.76583,0 -8.45922,0.0547 -8.45922,0.27303 0,0.15017 0.14673,0.84073 0.32607,1.53459 0.89372,3.45779 3.91319,5.59696 7.53445,5.33786 2.29233,-0.16402 4.00828,-1.17896 5.28982,-3.12881 l 0.34451,-0.52417 1.71994,0.83648 c 1.48884,0.72407 1.70148,0.89472 1.58249,1.27 -0.41325,1.30333 -2.29446,3.32651 -3.81166,4.0993 -1.93248,0.98433 -5.54176,1.49765 -7.74404,1.10137 z m 7.67008,-15.02504 c 0,-0.99368 -0.83147,-2.95324 -1.62652,-3.83326 -1.13465,-1.25592 -2.36789,-1.75163 -4.39235,-1.76554 -1.35339,-0.009 -1.93613,0.0912 -2.81335,0.48521 -1.8536,0.83254 -3.38027,2.83645 -3.76877,4.9469 l -0.14612,0.79375 h 6.37356 6.37355 z m 33.02001,15.10124 c -2.96456,-0.45575 -4.42763,-1.10271 -5.66009,-2.50287 -1.01282,-1.15062 -1.44076,-2.47832 -1.40302,-4.35295 0.0831,-4.12633 2.99663,-5.97678 11.70571,-7.43452 1.46294,-0.24487 2.75926,-0.5246 2.88071,-0.62162 0.34718,-0.27736 0.017,-3.00129 -0.46354,-3.82409 -1.87481,-3.21011 -7.8675,-2.59736 -9.60005,0.9816 -0.30619,0.6325 -0.59579,0.95194 -0.86305,0.95194 -0.62122,0 -3.18119,-1.08327 -3.30162,-1.3971 -0.15542,-0.40502 0.81591,-2.41162 1.59928,-3.30383 0.91277,-1.03959 2.50777,-2.02954 4.10064,-2.5451 1.89948,-0.61479 5.6606,-0.612 7.54818,0.006 2.5846,0.84567 4.17148,2.2997 5.15814,4.72634 0.43541,1.07086 0.46643,1.52045 0.5239,7.59408 0.0397,4.19664 0.14337,6.61761 0.29624,6.91812 0.33313,0.65488 1.28592,0.99366 2.32658,0.82725 l 0.87322,-0.13963 -0.10946,1.52984 c -0.0867,1.21192 -0.20111,1.60405 -0.55047,1.88695 -0.91794,0.7433 -3.34334,0.68396 -4.8977,-0.11984 -0.69505,-0.35942 -1.69694,-1.49484 -1.69694,-1.9231 0,-0.42054 -0.0521,-0.39593 -0.94578,0.44695 -0.95531,0.90097 -1.9568,1.43291 -3.50559,1.862 -1.27521,0.35328 -3.19232,0.56048 -4.01529,0.43397 z m 4.77593,-4.36744 c 1.21856,-0.62403 2.5439,-1.98196 2.78337,-2.85182 0.0889,-0.32308 0.1628,-1.39704 0.16412,-2.38659 0.002,-1.53889 -0.047,-1.79111 -0.33945,-1.74353 -0.18802,0.0306 -1.94639,0.38384 -3.90749,0.78498 -3.9761,0.8133 -4.96513,1.28658 -5.66437,2.71057 -0.75062,1.52863 0.0796,3.33805 1.79737,3.9173 0.38941,0.13131 1.47002,0.21156 2.40135,0.17835 1.32528,-0.0473 1.92628,-0.1797 2.7651,-0.60926 z m -23.00542,3.89435 c -1.7257,-0.56838 -2.61304,-1.33828 -3.412,-2.96041 l -0.68935,-1.39959 -0.0649,-7.78388 -0.0648,-7.78388 h -2.10473 -2.10473 v -1.79916 -1.79917 h 2.11053 2.11052 l 0.0591,-2.7984 0.0591,-2.79839 1.79917,-0.57186 c 2.90222,-0.92245 2.67156,-1.1593 2.65771,2.72907 l -0.0119,3.33375 3.96875,0.0576 3.96875,0.0576 v 1.78983 1.78982 l -3.96875,0.0576 -3.96875,0.0576 0.0761,7.09083 c 0.0864,8.04905 0.10611,8.1585 1.59787,8.88064 1.41154,0.68332 2.87264,0.46947 4.51561,-0.66092 l 0.9061,-0.62342 0.38879,0.91143 c 0.86513,2.02812 0.95085,2.48909 0.54603,2.93641 -0.20454,0.22601 -0.90446,0.67165 -1.55538,0.99031 -1.02631,0.50243 -1.47866,0.58664 -3.40599,0.63403 -1.70728,0.042 -2.49844,-0.0362 -3.41282,-0.33739 z M 83.752877,271.00733 c -0.59868,-1.18688 -9.02871,-22.19632 -9.02871,-22.50149 0,-0.12232 0.94245,-0.20709 2.30227,-0.20709 h 2.30227 l 0.43118,1.00542 c 0.51776,1.2073 3.28751,8.65676 5.15383,13.86164 0.74046,2.065 1.3954,3.75569 1.45544,3.75708 0.06,10e-4 0.52509,-1.11666 1.03347,-2.48456 0.50837,-1.36789 1.89634,-5.0112 3.08437,-8.09625 1.18803,-3.08504 2.34317,-6.13304 2.56697,-6.77333 l 0.40692,-1.16417 2.29812,-0.0603 2.29811,-0.0603 -0.12277,0.48915 c -0.15189,0.60517 -8.69713,21.86604 -9.08241,22.59735 -0.26585,0.50463 -0.3787,0.53196 -2.4335,0.58941 l -2.15472,0.0602 z m 42.131223,0.86413 c -0.0815,-0.0815 -0.14826,-5.41876 -0.14826,-11.86049 v -11.71222 h 1.88818 1.88818 l 0.11145,0.58208 c 0.0613,0.32015 0.17219,1.07582 0.24642,1.67927 l 0.13496,1.09719 0.89162,-1.09719 c 1.63472,-2.01162 4.20416,-3.09783 6.6484,-2.81056 0.92521,0.10874 2.38455,0.61344 2.36883,0.81923 -0.0316,0.41387 -0.8623,3.2174 -0.98803,3.3346 -0.0949,0.0884 -0.73787,0.0814 -1.42887,-0.0156 -3.1625,-0.44416 -5.02318,0.71898 -6.61779,4.13686 l -0.59252,1.27 -0.10583,7.3025 -0.10583,7.3025 -2.02132,0.0601 c -1.11173,0.033 -2.08804,-0.007 -2.16959,-0.0882 z m 17.56834,0 c -0.0815,-0.0815 -0.14827,-5.41118 -0.14827,-11.84364 v -11.69538 l 1.32292,-0.14013 c 0.7276,-0.0771 1.70392,-0.10847 2.16958,-0.0698 l 0.84667,0.0704 v 11.85333 11.85333 l -2.02132,0.0601 c -1.11172,0.033 -2.08804,-0.007 -2.16958,-0.0882 z m 0.71823,-28.28381 c -1.01103,-0.36888 -1.55386,-1.19564 -1.66096,-2.52971 -0.0741,-0.92276 -0.001,-1.2505 0.41293,-1.86086 1.17903,-1.73705 4.33048,-1.59048 5.26684,0.24495 0.72478,1.42067 0.32744,3.35094 -0.8157,3.96273 -0.67804,0.36287 -2.43488,0.46319 -3.20311,0.18289 z"
       id="path1" /></g></svg>
